<svg xmlns="http://www.w3.org/2000/svg" version="1.1" xmlns:xlink="http://www.w3.org/1999/xlink" width="269.8462385607502" height="200" viewBox="-6.848618507385254 13.099770545959473 61.22456741333008 42.78900146484375"><path d="M3.96 37.20C3.40 37.32 4.68 37.08 3.96 37.20C2.24 37.52 5 33.24 5.40 32.52C6.56 30.56 7.68 28.60 8.92 26.68C10.20 24.68 11.16 22.36 11.68 20.04C12.04 18.32 12.76 15.48 12.20 13.76C11.36 11.16 10.08 17.04 9.92 17.60C9.20 19.92 8.44 22.24 7.60 24.52C6.84 26.52 6.20 28.80 4.80 30.48C4.08 31.36 3.24 32.16 2.44 32.92C2.04 33.36 0.36 34.28 0.28 34.84C-0.04 36.84 3.24 34.24 2.20 36.24C1.20 38.16 0.16 38.76-1.64 39.92C-4.40 41.76-8.68 48.68-6 52.20C-4.44 54.24-3.12 49.84-2.64 48.92C-1.60 46.80-0.28 42.40 1 40.44C2.04 38.88 4.04 38.44 5.64 37.72C6 37.52 6.96 36.88 6.24 36.44C5.92 36.28 4.40 37.12 3.96 37.20ZM-5 50.48C-5.52 50.16-5.68 49.32-5.72 48.80C-5.72 47.84-5.48 46.96-4 44.52C-3.72 44.04-1 40.84-0.88 41.44C-0.76 42.08-2.40 45.36-2.68 46C-2.88 46.48-4.52 50.68-5 50.48ZM6.64 37.20C6.64 38.56 6.56 39.48 7.52 39.88C8.48 40.28 9.24 39.76 9.92 39.04C10.32 38.56 10.68 38.08 11.12 37.68C11.48 37.32 11.96 36.84 12.16 37.88C12.20 38.16 12.20 38.52 12.40 38.72C12.64 39 13.04 39.20 13.36 39.40C13.48 39.08 13.80 38.72 13.72 38.44C13.24 36.64 13.80 35 14.28 33.32C14.36 33 14.52 32.68 14.44 32.44C14.36 32.12 14.12 31.72 13.84 31.60C13.60 31.52 13.16 31.80 12.96 32C12.68 32.36 12.60 32.84 12.36 33.24C11.56 34.60 10.76 35.96 9.88 37.24C9.52 37.76 9.16 38.72 8.40 38.24C8.12 38.12 8.32 37.04 8.40 36.40C8.40 36.20 8.60 36 8.72 35.80C9.24 34.56 9.76 33.28 10.32 32.04C10.60 31.44 10.80 30.88 10.12 30.44C9.44 30.04 9.16 30.68 8.92 31.12C7.72 33.16 6.84 35.32 6.64 37.20ZM28.80 30.40C28.64 30.36 28.52 30.32 28.40 30.32C27.96 30.36 27.48 30.40 27.04 30.44C24.84 30.68 22.64 30.96 20.40 31.16C19.88 31.20 19.16 31.12 18.84 30.76C18.28 30.20 17.92 30.40 17.36 30.68C16.64 31.04 16.40 31.60 16.20 32.32C15.68 34.60 15.08 36.88 14.52 39.16C14.48 39.44 14.48 39.72 14.48 40.04C14.88 39.96 15.44 40.08 15.68 39.84C16.04 39.44 16.28 38.88 16.44 38.36C16.96 36.88 17.40 35.44 17.88 34C18.16 33.12 18.68 32.60 19.68 32.56C20.80 32.48 21.96 32.24 23.04 31.96C24.80 31.56 26.52 31.08 28.24 30.60C28.40 30.56 28.56 30.48 28.80 30.40ZM27.20 48.96C27.28 48.32 27.76 44.80 27.92 43.92C28.08 42.76 28.32 41.60 28.64 40.48C29.16 38.60 29.84 36.80 30.84 35.12C30.92 35 30.96 34.80 31 34.64C31.04 34.48 31.12 34.32 31.12 34.16C31.04 33.52 30.92 32.84 30.84 32.16C30.80 32.08 30.76 32.04 30.72 31.96C30.48 31.52 30.16 31.12 29.76 30.80C29.16 30.36 28.52 30.24 27.84 30.40C27.44 30.48 27.04 30.60 26.64 30.72C25.68 31.08 24.80 31.60 24.12 32.36C23.32 33.24 22.64 34.20 22.16 35.28C22.04 35.48 21.96 35.72 21.88 35.96C21.68 36.64 21.72 37.32 22 37.96C22.44 38.92 23.24 39.52 24.32 39.68C24.56 39.68 24.84 39.68 25.08 39.60C25.64 39.40 26.16 39.20 26.72 38.96C27 38.84 27.36 39.20 27.32 39.56C27.32 39.80 27.28 40.04 27.24 40.28C27.16 40.68 26.96 41.08 26.92 41.52C26.80 42.76 26.40 43.96 26.36 45.24C26.36 45.48 26.32 45.76 26.24 46C26.04 46.64 25.96 47.32 25.88 47.96C25.80 49.08 25.48 50.12 25.24 51.16C25.08 51.84 25.16 51.64 24.92 52.24C24.72 52.72 24.44 53.12 24 53.40C23.64 53.64 23.28 53.84 22.92 54.12C22.64 54.32 22.52 54.64 22.52 54.96C22.52 55.48 23 55.96 23.80 55.88C23.84 55.88 24.16 55.84 24.48 55.72C25.36 55.40 26.24 55.20 27.12 54.92C28.32 54.52 29.56 54.20 30.76 53.84C31.96 53.52 33.16 53.16 34.44 52.96C34.68 52.92 34.92 52.80 35.16 52.76C36.40 52.56 37.60 52.20 38.88 52.04C39.96 51.88 41 51.60 42.12 51.56C42.28 51.56 42.44 51.52 42.60 51.48C43.40 51.20 44.24 51.08 45.04 50.92C45.96 50.76 46.60 50.80 47.32 50.72C48.52 50.64 50.16 50.64 50.52 50.64C50.76 50.60 53.08 50.60 53.32 50.60C53.52 50.60 53.68 50.52 53.76 50.36C53.80 50.28 53.64 50.12 53.44 50.12C52.36 50.12 47 50.12 45.88 50.16C44.88 50.16 43.88 50.20 42.88 50.48C42.48 50.60 42.08 50.60 41.64 50.64C40.96 50.68 40.32 50.76 39.64 50.92C39.32 51.04 39 51.12 38.68 51.12C37.56 51.20 36.52 51.52 35.44 51.72C34.60 51.88 33.80 52.12 32.96 52.20C32 52.52 31 52.68 30.04 52.84C29.68 52.92 29.36 53.04 29.04 53.12C28.56 53.28 28.08 53.40 27.60 53.56C27.28 53.64 26.92 53.64 26.60 53.56C26.44 53.52 26.32 53.36 26.32 53.20C26.28 52.76 26.52 52.40 26.64 52C27.04 50.72 27.16 49.64 27.20 48.96ZM24.44 38.40C24.28 38.36 24.08 38.36 23.96 38.32C23.72 38.24 23.52 38.12 23.36 37.88C23.08 37.40 23.04 36.96 23.20 36.44C23.32 36.04 23.44 35.64 23.68 35.28C23.88 35 24.04 34.76 24.24 34.44C24.44 34.08 24.72 33.76 25.04 33.52C25.36 33.28 25.72 33 26.04 32.76C26.56 32.32 27.20 32.12 27.84 31.96C28.64 31.76 29.32 32.12 29.72 32.84C29.84 33.08 29.88 33.36 29.76 33.56C29.28 34.56 28.80 35.52 28.32 36.48C28.16 36.80 27.92 37.04 27.64 37.20C27.28 37.44 26.92 37.64 26.56 37.88C25.80 38.32 25.44 38.44 24.44 38.40ZM40.52 39.08C40.48 39 40.40 38.96 40.36 38.92C40.24 38.76 40.12 38.64 39.96 38.52C39.20 37.96 38.84 37.56 38.76 37.16C38.68 36.76 38.88 36.24 39.44 35.44C39.44 35.40 39.48 35.36 39.52 35.28C39.60 35.20 39.68 35.08 39.76 34.96C39.96 34.60 40.24 34.08 40 33.64C39.84 33.32 39.52 33.16 38.96 33.08C38.36 33.04 38.24 32.88 38.16 32.40C38.12 32.16 38.04 31.88 37.92 31.60C37.68 31 37.36 30.40 36.64 30.40C36.36 30.40 36.08 30.48 35.64 30.64C35.20 30.80 34.72 31 34.40 31.36C32.88 33.08 31.88 34.64 31.20 36.28C31.12 36.48 31.08 36.64 31.04 36.80C31.04 36.84 31.04 36.88 31 36.92L31 36.96L31 37C30.96 37.92 31.24 38.72 31.76 39.28C32.20 39.72 32.80 40 33.44 40C33.92 40 34.36 39.88 34.84 39.64C35.44 39.32 36.04 38.92 36.60 38.40C36.84 38.16 37 38.12 37.08 38.12C37.20 38.12 37.36 38.32 37.44 38.48C37.88 39.12 38.40 39.84 39.40 39.84C39.44 39.84 39.44 39.84 39.48 39.84C39.72 39.84 39.96 39.76 40.12 39.68C40.24 39.64 40.32 39.60 40.36 39.60L40.88 39.44ZM36.92 34.36C36.80 36.24 35.64 37.88 34.08 38.32C33.84 38.36 33.68 38.40 33.52 38.40C33.52 38.40 33.52 38.40 33.52 38.40C33.24 38.40 32.96 38.32 32.88 37.44C32.88 37.40 32.88 37.32 32.88 37.28C32.84 37.20 32.84 37.08 32.88 37.04C33.60 35.28 34.36 33.60 36 32.52C36.24 32.40 36.36 32.36 36.40 32.36C36.52 32.36 36.56 32.56 36.60 32.72C36.68 33.20 36.80 33.68 36.88 34.04C36.88 34.16 36.92 34.28 36.92 34.36ZM45.80 37.92C45.80 39.84 46.64 40.40 47.88 39.76C48.52 39.40 49 38.84 49.60 38.40C49.80 38.24 50.08 38.12 50.32 38C50.40 38.24 50.52 38.48 50.56 38.76C50.64 39.16 50.56 39.64 50.72 40C50.88 40.36 51.24 40.60 51.52 40.92C51.64 40.60 51.84 40.28 51.88 40C51.96 38.52 52.40 37.16 53.32 36C53.60 35.60 53.72 35.08 53.88 34.60C54.16 33.88 54.84 33.04 53.88 32.52C52.96 32.04 52.80 33.16 52.36 33.64C51.04 35.16 49.76 36.72 48.44 38.24C48.20 38.48 47.68 38.48 47.28 38.60C47.28 38.20 47.16 37.76 47.28 37.44C47.92 35.92 48.68 34.44 49.32 32.92C49.76 31.88 49.56 30.92 48.96 30.56C48.16 30.04 47.64 30.76 47 31.04C46.76 31.16 46.52 31.36 46.32 31.56C44.44 33.44 42.52 35.28 40.68 37.20C40.32 37.52 40.04 38 39.92 38.48C39.88 38.72 40.16 39.08 40.36 39.36C40.40 39.40 40.84 39.20 41 39.04C42.44 37.36 43.80 35.60 45.28 33.96C45.92 33.24 46.88 32.80 47.68 32.24C48.16 33.36 47.28 34.08 46.96 35C46.52 36.12 46.08 37.24 45.80 37.92Z" fill="black"></path></svg>